PathFileType	4	(X/Y/Z)	RBDS09static.trc
DataRate	CameraRate	NumFrames	NumMarkers	Units	OrigDataRate	OrigDataStartFrame	OrigNumFrames
150.000000	150.000000	4	48	mm	150.000000	56	150
Frame#	Time	L.Ankle			L.Ankle.Medial			L.ASIS			L.GTR			L.Heel.Bottom			L.Heel.Lateral			L.Heel.Top			L.HF			L.Iliac.Crest			L.Knee			L.Knee.Medial			L.MT1			L.MT2			L.MT5			L.PSIS			L.Shank.Bottom.Lateral			L.Shank.Bottom.Medial			L.Shank.Top.Lateral			L.Shank.Top.Medial			L.Thigh.Bottom.Lateral			L.Thigh.Bottom.Medial			L.Thigh.Top.Lateral			L.Thigh.Top.Medial			L.TT			R.Ankle			R.Ankle.Medial			R.ASIS			R.GTR			R.Heel.Bottom			R.Heel.Lateral			R.Heel.Top			R.HF			R.Iliac.Crest			R.Knee			R.Knee.Medial			R.MT1			R.MT2			R.MT5			R.PSIS			R.Shank.Bottom.Lateral			R.Shank.Bottom.Medial			R.Shank.Top.Lateral			R.Shank.Top.Medial			R.Thigh.Bottom.Lateral			R.Thigh.Bottom.Medial			R.Thigh.Top.Lateral			R.Thigh.Top.Medial			R.TT			
		X1	Y1	Z1	X2	Y2	Z2	X3	Y3	Z3	X4	Y4	Z4	X5	Y5	Z5	X6	Y6	Z6	X7	Y7	Z7	X8	Y8	Z8	X9	Y9	Z9	X10	Y10	Z10	X11	Y11	Z11	X12	Y12	Z12	X13	Y13	Z13	X14	Y14	Z14	X15	Y15	Z15	X16	Y16	Z16	X17	Y17	Z17	X18	Y18	Z18	X19	Y19	Z19	X20	Y20	Z20	X21	Y21	Z21	X22	Y22	Z22	X23	Y23	Z23	X24	Y24	Z24	X25	Y25	Z25	X26	Y26	Z26	X27	Y27	Z27	X28	Y28	Z28	X29	Y29	Z29	X30	Y30	Z30	X31	Y31	Z31	X32	Y32	Z32	X33	Y33	Z33	X34	Y34	Z34	X35	Y35	Z35	X36	Y36	Z36	X37	Y37	Z37	X38	Y38	Z38	X39	Y39	Z39	X40	Y40	Z40	X41	Y41	Z41	X42	Y42	Z42	X43	Y43	Z43	X44	Y44	Z44	X45	Y45	Z45	X46	Y46	Z46	X47	Y47	Z47	X48	Y48	Z48	

57	0.3733333333333334	693.4173583984375	98.38745880126953	1047.573852539063	709.8306274414063	109.482780456543	1133.802612304688	823.123046875	983.6326904296875	1113.15966796875	746.8772583007813	902.6681518554688	1069.510986328125	627.7879028320313	38.74787139892578	1081.55224609375	664.36962890625	60.71045303344727	1044.0986328125	635.265869140625	88.45217132568359	1084.05908203125	706.8153686523438	459.8472900390625	1051.60986328125	758.2970581054688	1047.100219726563	1080.671630859375	707.7923583984375	523.4086303710938	1058.15234375	700.4115600585938	507.4308776855469	1187.388427734375	837.2759399414063	55.06540298461914	1136.151123046875	835.7695922851563	70.02067565917969	1086.095581054688	810.8138427734375	51.42452621459961	1027.995849609375	664.184814453125	1019.923889160156	1200.693237304688	683.3361206054688	193.3755950927734	1037.424194335938	644.0835571289063	188.188720703125	1073.214233398438	670.833984375	272.4618835449219	1031.916381835938	631.6182861328125	267.9680480957031	1067.8291015625	684.9764404296875	642.1441650390625	1056.211303710938	638.0344848632813	644.1318969726563	1112.451416015625	689.9717407226563	752.8948364257813	1059.196655273438	649.3204345703125	753.98583984375	1115.726928710938	757.0985717773438	440.4749450683594	1108.06298828125	698.3585815429688	99.50833129882813	1416.47265625	714.2453002929688	115.5250701904297	1328.998413085938	830.0399169921875	980.1029052734375	1347.753784179688	760.6965942382813	898.6595458984375	1394.88818359375	630.5167846679688	38.06501007080078	1376.6005859375	667.3917236328125	60.4587516784668	1418.111938476563	638.5770263671875	86.50978088378906	1374.305297851563	721.52685546875	456.7365112304688	1418.609497070313	775.9661254882813	1049.002807617188	1388.55517578125	725.9171752929688	523.9646606445313	1412.227294921875	699.6887817382813	503.5992126464844	1282.313720703125	835.257080078125	59.96026992797852	1326.832275390625	843.4888305664063	69.21205902099609	1372.656616210938	812.1215209960938	49.24524688720703	1436.717651367188	667.1080932617188	1014.835998535156	1276.61669921875	671.845458984375	185.2699890136719	1417.577270507813	646.7970581054688	188.2620086669922	1372.2490234375	661.5650024414063	269.2309265136719	1426.003295898438	635.947998046875	267.9263916015625	1379.390014648438	725.1135864257813	603.3225708007813	1422.728881835938	662.386474609375	601.85986328125	1384.500610351563	721.5870971679688	713.8981323242188	1420.932983398438	663.35107421875	712.0193481445313	1383.1259765625	767.8247680664063	437.4868469238281	1361.468505859375	
58	0.38	693.4275512695313	98.38935852050781	1047.568359375	709.824951171875	109.4755325317383	1133.810424804688	823.1083984375	983.6393432617188	1113.167114257813	746.8826293945313	902.674560546875	1069.51513671875	627.7822875976563	38.75173187255859	1081.556762695313	664.3627319335938	60.70271682739258	1044.10009765625	635.2612915039063	88.45090484619141	1084.056274414063	706.8321533203125	459.8485107421875	1051.611083984375	758.2730712890625	1047.097290039063	1080.6708984375	707.7966918945313	523.41064453125	1058.1533203125	700.4246215820313	507.4318542480469	1187.397338867188	837.2807006835938	55.08407974243164	1136.164306640625	835.7811889648438	70.02271270751953	1086.099853515625	810.8162231445313	51.42967224121094	1027.998901367188	664.1774291992188	1019.923767089844	1200.704345703125	683.3447875976563	193.3789978027344	1037.422607421875	644.0791015625	188.1868438720703	1073.208740234375	670.8392944335938	272.4738159179688	1031.903442382813	631.6285400390625	267.9671936035156	1067.836059570313	684.9849853515625	642.1392822265625	1056.213623046875	638.045654296875	644.1261596679688	1112.449096679688	689.9774169921875	752.899658203125	1059.192138671875	649.3327026367188	753.9859619140625	1115.724731445313	757.1133422851563	440.4842529296875	1108.072998046875	698.3656616210938	99.52758026123047	1416.467041015625	714.2368774414063	115.5225982666016	1329.002319335938	830.0283203125	980.1018676757813	1347.7646484375	760.68212890625	898.6597900390625	1394.897705078125	630.5174560546875	38.06865310668945	1376.587768554688	667.3855590820313	60.46707153320313	1418.111450195313	638.580322265625	86.51472473144531	1374.312744140625	721.5328979492188	456.7387390136719	1418.600708007813	775.9694213867188	1049.0556640625	1388.521606445313	725.918701171875	523.946533203125	1412.235595703125	699.6928100585938	503.6068420410156	1282.32080078125	835.2479248046875	59.96670150756836	1326.832885742188	843.4932861328125	69.21384429931641	1372.656372070313	812.1243286132813	49.25	1436.716064453125	667.097900390625	1014.834106445313	1276.615844726563	671.8436279296875	185.2736206054688	1417.573974609375	646.7899169921875	188.2619934082031	1372.249145507813	661.5737915039063	269.2281494140625	1425.9970703125	635.943359375	267.9238586425781	1379.390991210938	725.1217041015625	603.3154296875	1422.727416992188	662.3929443359375	601.8631591796875	1384.52099609375	721.5858764648438	713.912109375	1420.951782226563	663.3510131835938	712.0108032226563	1383.144775390625	767.8250122070313	437.4732055664063	1361.463989257813	
59	0.3866666666666667	693.4094848632813	98.39049530029297	1047.565185546875	709.8290405273438	109.4845581054688	1133.797973632813	823.113037109375	983.6411743164063	1113.166870117188	746.869873046875	902.6757202148438	1069.515991210938	627.7833251953125	38.75377655029297	1081.55615234375	664.3618774414063	60.70494842529297	1044.089233398438	635.2605590820313	88.45182800292969	1084.06005859375	706.8279418945313	459.8526611328125	1051.600952148438	758.2425537109375	1047.0830078125	1080.670166015625	707.8178100585938	523.4063110351563	1058.160400390625	700.4351806640625	507.4286804199219	1187.386840820313	837.2749633789063	55.07087707519531	1136.164306640625	835.78125	70.02425384521484	1086.097290039063	810.8196411132813	51.43043518066406	1028.0029296875	664.1669311523438	1019.921142578125	1200.700805664063	683.34326171875	193.3749084472656	1037.423950195313	644.08154296875	188.18701171875	1073.209350585938	670.8493041992188	272.4632263183594	1031.910522460938	631.6325073242188	267.9724426269531	1067.830078125	685.0015869140625	642.1453247070313	1056.204956054688	638.0577392578125	644.1213989257813	1112.453125	689.9893798828125	752.8944702148438	1059.196533203125	649.3343505859375	753.9825439453125	1115.732666015625	757.1264038085938	440.4675903320313	1108.079223632813	698.359375	99.51486206054688	1416.468383789063	714.2466430664063	115.5263977050781	1329.002807617188	830.01513671875	980.1101684570313	1347.780517578125	760.6710815429688	898.6593017578125	1394.909912109375	630.518310546875	38.06581497192383	1376.58984375	667.3965454101563	60.46291732788086	1418.108154296875	638.5814819335938	86.51000213623047	1374.305419921875	721.5291137695313	456.7297058105469	1418.61181640625	775.9578247070313	1049.059204101563	1388.527465820313	725.9256591796875	523.9559326171875	1412.228271484375	699.6846923828125	503.60498046875	1282.328125	835.2554931640625	59.96133041381836	1326.833618164063	843.4979248046875	69.20999908447266	1372.66162109375	812.1173095703125	49.24683380126953	1436.718139648438	667.092529296875	1014.832336425781	1276.625610351563	671.8456420898438	185.2731781005859	1417.572875976563	646.7962646484375	188.2642669677734	1372.252197265625	661.5772094726563	269.2249145507813	1426.004638671875	635.9493408203125	267.9233703613281	1379.3935546875	725.1261596679688	603.32470703125	1422.740966796875	662.3919067382813	601.8536987304688	1384.512939453125	721.5787353515625	713.9088745117188	1420.963134765625	663.34814453125	712.0116577148438	1383.162963867188	767.8273315429688	437.4875793457031	1361.4736328125	
60	0.3933333333333334	693.4140014648438	98.39089202880859	1047.569702148438	709.8338623046875	109.4773635864258	1133.798583984375	823.0977783203125	983.6478881835938	1113.1787109375	746.8806762695313	902.6824340820313	1069.539184570313	627.785400390625	38.74919128417969	1081.543823242188	664.35400390625	60.7033805847168	1044.091552734375	635.2554321289063	88.46012878417969	1084.053955078125	706.8600463867188	459.8415222167969	1051.609497070313	758.2322387695313	1047.073364257813	1080.675659179688	707.82275390625	523.4067993164063	1058.158081054688	700.44580078125	507.4289245605469	1187.3935546875	837.2849731445313	55.06315612792969	1136.158935546875	835.7818603515625	70.01842498779297	1086.102416992188	810.8123168945313	51.42682266235352	1028.006103515625	664.16162109375	1019.920532226563	1200.706909179688	683.3432006835938	193.3844451904297	1037.419189453125	644.085693359375	188.1876220703125	1073.202514648438	670.847900390625	272.4638671875	1031.921752929688	631.6327514648438	267.9729309082031	1067.827880859375	685.0123291015625	642.1422119140625	1056.197387695313	638.0751953125	644.1221313476563	1112.4501953125	690.0008544921875	752.896484375	1059.197387695313	649.3561401367188	753.9825439453125	1115.731567382813	757.1376953125	440.4767456054688	1108.085083007813	698.3661499023438	99.52157592773438	1416.471923828125	714.259765625	115.5245590209961	1329.002563476563	830.0050659179688	980.1070556640625	1347.77734375	760.6603393554688	898.6622314453125	1394.9130859375	630.5227661132813	38.06662368774414	1376.582763671875	667.387939453125	60.4755859375	1418.109008789063	638.578369140625	86.51218414306641	1374.29833984375	721.54150390625	456.7275390625	1418.609252929688	775.9306640625	1049.067138671875	1388.535522460938	725.919921875	523.9515380859375	1412.235229492188	699.7086791992188	503.6055297851563	1282.320678710938	835.2615966796875	59.96463775634766	1326.831298828125	843.4988403320313	69.20993804931641	1372.659545898438	812.1209106445313	49.24611282348633	1436.71875	667.07177734375	1014.832214355469	1276.621704101563	671.8397216796875	185.2726440429688	1417.5703125	646.7974243164063	188.2681732177734	1372.247436523438	661.5775756835938	269.23193359375	1426.000854492188	635.95263671875	267.9222106933594	1379.387817382813	725.121826171875	603.3176879882813	1422.749267578125	662.3920288085938	601.8463134765625	1384.53466796875	721.5896606445313	713.9076538085938	1420.972045898438	663.3379516601563	712.0119018554688	1383.17041015625	767.8317260742188	437.4869384765625	1361.476806640625	
